<svg xmlns="http://www.w3.org/2000/svg" width="15" height="18" fill="none" viewBox="0 0 15 18"><path fill="#5D5766" d="M12.375 9H10.875V8.25H12.375C12.4745 8.25 12.5698 8.21049 12.6402 8.14017C12.7105 8.06984 12.75 7.97446 12.75 7.875V3.375C12.75 2.75475 12.2452 2.25 11.625 2.25H3.375C2.75475 2.25 2.25 2.75475 2.25 3.375V7.875C2.25 7.97446 2.28951 8.06984 2.35984 8.14017C2.43016 8.21049 2.52554 8.25 2.625 8.25H4.125V9H2.625C2.00475 9 1.5 8.49525 1.5 7.875V3.375C1.5 2.34113 2.34113 1.5 3.375 1.5H11.625C12.6589 1.5 13.5 2.34113 13.5 3.375V7.875C13.5 8.49525 12.9952 9 12.375 9Z"/><path fill="#5D5766" d="M11.25 2.25H9C8.90054 2.25 8.80516 2.21049 8.73484 2.14016C8.66451 2.06984 8.625 1.97446 8.625 1.875V0.375C8.625 0.275544 8.66451 0.180161 8.73484 0.109835C8.80516 0.0395088 8.90054 0 9 0L11.25 0C11.3495 0 11.4448 0.0395088 11.5152 0.109835C11.5855 0.180161 11.625 0.275544 11.625 0.375V1.875C11.625 1.97446 11.5855 2.06984 11.5152 2.14016C11.4448 2.21049 11.3495 2.25 11.25 2.25ZM9.375 1.5H10.875V0.75H9.375V1.5ZM6 2.25H3.75C3.65054 2.25 3.55516 2.21049 3.48484 2.14016C3.41451 2.06984 3.375 1.97446 3.375 1.875V0.375C3.375 0.275544 3.41451 0.180161 3.48484 0.109835C3.55516 0.0395088 3.65054 0 3.75 0L6 0C6.09946 0 6.19484 0.0395088 6.26517 0.109835C6.33549 0.180161 6.375 0.275544 6.375 0.375V1.875C6.375 1.97446 6.33549 2.06984 6.26517 2.14016C6.19484 2.21049 6.09946 2.25 6 2.25ZM4.125 1.5H5.625V0.75H4.125V1.5ZM2.625 15H0.375C0.275544 15 0.180161 14.9605 0.109835 14.8902C0.0395088 14.8198 0 14.7245 0 14.625V13.5C0 12.6727 0.67275 12 1.5 12H2.625C2.72446 12 2.81984 12.0395 2.89017 12.1098C2.96049 12.1802 3 12.2755 3 12.375V14.625C3 14.7245 2.96049 14.8198 2.89017 14.8902C2.81984 14.9605 2.72446 15 2.625 15ZM0.75 14.25H2.25V12.75H1.5C1.08638 12.75 0.75 13.0864 0.75 13.5V14.25Z"/><path fill="#5D5766" d="M2.625 18H1.125C0.50475 18 0 17.4953 0 16.875V14.625C0 14.5255 0.0395088 14.4302 0.109835 14.3598C0.180161 14.2895 0.275544 14.25 0.375 14.25H2.625C2.72446 14.25 2.81984 14.2895 2.89016 14.3598C2.96049 14.4302 3 14.5255 3 14.625V17.625C3 17.7245 2.96049 17.8198 2.89016 17.8902C2.81984 17.9605 2.72446 18 2.625 18ZM0.75 15V16.875C0.75 16.9745 0.789509 17.0698 0.859835 17.1402C0.930161 17.2105 1.02554 17.25 1.125 17.25H2.25V15H0.75ZM14.625 15H12.375C12.2755 15 12.1802 14.9605 12.1098 14.8902C12.0395 14.8198 12 14.7245 12 14.625V12.375C12 12.2755 12.0395 12.1802 12.1098 12.1098C12.1802 12.0395 12.2755 12 12.375 12H13.5C14.3273 12 15 12.6727 15 13.5V14.625C15 14.7245 14.9605 14.8198 14.8902 14.8902C14.8198 14.9605 14.7245 15 14.625 15ZM12.75 14.25H14.25V13.5C14.25 13.0864 13.9136 12.75 13.5 12.75H12.75V14.25Z"/><path fill="#5D5766" d="M13.875 18H12.375C12.2755 18 12.1802 17.9605 12.1098 17.8902C12.0395 17.8198 12 17.7245 12 17.625V14.625C12 14.5255 12.0395 14.4302 12.1098 14.3598C12.1802 14.2895 12.2755 14.25 12.375 14.25H14.625C14.7245 14.25 14.8198 14.2895 14.8902 14.3598C14.9605 14.4302 15 14.5255 15 14.625V16.875C15 17.4952 14.4952 18 13.875 18ZM12.75 17.25H13.875C13.9745 17.25 14.0698 17.2105 14.1402 17.1402C14.2105 17.0698 14.25 16.9745 14.25 16.875V15H12.75V17.25ZM10.875 15H4.125C4.02554 15 3.93016 14.9605 3.85984 14.8902C3.78951 14.8198 3.75 14.7245 3.75 14.625V13.5C3.75 12.6727 4.42275 12 5.25 12H9.75C10.5773 12 11.25 12.6727 11.25 13.5V14.625C11.25 14.7245 11.2105 14.8198 11.1402 14.8902C11.0698 14.9605 10.9745 15 10.875 15ZM4.5 14.25H10.5V13.5C10.5 13.0864 10.1636 12.75 9.75 12.75H5.25C4.83637 12.75 4.5 13.0864 4.5 13.5V14.25ZM4.875 10.875C4.25475 10.875 3.75 10.3703 3.75 9.75V7.875C3.75 7.25475 4.25475 6.75 4.875 6.75C5.49525 6.75 6 7.25475 6 7.875V9.75C6 10.3703 5.49525 10.875 4.875 10.875ZM4.875 7.5C4.77554 7.5 4.68016 7.53951 4.60984 7.60983C4.53951 7.68016 4.5 7.77554 4.5 7.875V9.75C4.5 9.84946 4.53951 9.94484 4.60984 10.0152C4.68016 10.0855 4.77554 10.125 4.875 10.125C4.97446 10.125 5.06984 10.0855 5.14017 10.0152C5.21049 9.94484 5.25 9.84946 5.25 9.75V7.875C5.25 7.77554 5.21049 7.68016 5.14017 7.60983C5.06984 7.53951 4.97446 7.5 4.875 7.5ZM10.125 10.875C9.50475 10.875 9 10.3703 9 9.75V7.875C9 7.25475 9.50475 6.75 10.125 6.75C10.7453 6.75 11.25 7.25475 11.25 7.875V9.75C11.25 10.3703 10.7453 10.875 10.125 10.875ZM10.125 7.5C10.0255 7.5 9.93016 7.53951 9.85983 7.60983C9.78951 7.68016 9.75 7.77554 9.75 7.875V9.75C9.75 9.84946 9.78951 9.94484 9.85983 10.0152C9.93016 10.0855 10.0255 10.125 10.125 10.125C10.2245 10.125 10.3198 10.0855 10.3902 10.0152C10.4605 9.94484 10.5 9.84946 10.5 9.75V7.875C10.5 7.77554 10.4605 7.68016 10.3902 7.60983C10.3198 7.53951 10.2245 7.5 10.125 7.5ZM11.625 3.75H3.375C3.27554 3.75 3.18016 3.71049 3.10984 3.64016C3.03951 3.56984 3 3.47446 3 3.375C3 3.27554 3.03951 3.18016 3.10984 3.10984C3.18016 3.03951 3.27554 3 3.375 3H11.625C11.7245 3 11.8198 3.03951 11.8902 3.10984C11.9605 3.18016 12 3.27554 12 3.375C12 3.47446 11.9605 3.56984 11.8902 3.64016C11.8198 3.71049 11.7245 3.75 11.625 3.75Z"/><path fill="#5D5766" d="M4.125 4.5C4.02554 4.5 3.93016 4.46049 3.85984 4.39016C3.78951 4.31984 3.75 4.22446 3.75 4.125V3.375C3.75 3.27554 3.78951 3.18016 3.85984 3.10984C3.93016 3.03951 4.02554 3 4.125 3C4.22446 3 4.31984 3.03951 4.39017 3.10984C4.46049 3.18016 4.5 3.27554 4.5 3.375V4.125C4.5 4.22446 4.46049 4.31984 4.39017 4.39016C4.31984 4.46049 4.22446 4.5 4.125 4.5ZM5.625 15.75C5.52554 15.75 5.43016 15.7105 5.35983 15.6402C5.28951 15.5698 5.25 15.4745 5.25 15.375V13.875C5.25 13.7755 5.28951 13.6802 5.35983 13.6098C5.43016 13.5395 5.52554 13.5 5.625 13.5C5.72446 13.5 5.81984 13.5395 5.89017 13.6098C5.96049 13.6802 6 13.7755 6 13.875V15.375C6 15.4745 5.96049 15.5698 5.89017 15.6402C5.81984 15.7105 5.72446 15.75 5.625 15.75ZM9.375 15.75C9.27554 15.75 9.18016 15.7105 9.10984 15.6402C9.03951 15.5698 9 15.4745 9 15.375V13.875C9 13.7755 9.03951 13.6802 9.10984 13.6098C9.18016 13.5395 9.27554 13.5 9.375 13.5C9.47446 13.5 9.56984 13.5395 9.64017 13.6098C9.71049 13.6802 9.75 13.7755 9.75 13.875V15.375C9.75 15.4745 9.71049 15.5698 9.64017 15.6402C9.56984 15.7105 9.47446 15.75 9.375 15.75ZM5.625 8.25H9.375V9H5.625V8.25ZM2.625 12.75C2.52554 12.75 2.43016 12.7105 2.35984 12.6402C2.28951 12.5698 2.25 12.4745 2.25 12.375V8.625C2.25 8.52554 2.28951 8.43016 2.35984 8.35983C2.43016 8.28951 2.52554 8.25 2.625 8.25C2.72446 8.25 2.81984 8.28951 2.89017 8.35983C2.96049 8.43016 3 8.52554 3 8.625V12.375C3 12.4745 2.96049 12.5698 2.89017 12.6402C2.81984 12.7105 2.72446 12.75 2.625 12.75ZM12.375 12.75C12.2755 12.75 12.1802 12.7105 12.1098 12.6402C12.0395 12.5698 12 12.4745 12 12.375V8.625C12 8.52554 12.0395 8.43016 12.1098 8.35983C12.1802 8.28951 12.2755 8.25 12.375 8.25C12.4745 8.25 12.5698 8.28951 12.6402 8.35983C12.7105 8.43016 12.75 8.52554 12.75 8.625V12.375C12.75 12.4745 12.7105 12.5698 12.6402 12.6402C12.5698 12.7105 12.4745 12.75 12.375 12.75ZM12.375 18H2.625C2.52554 18 2.43016 17.9605 2.35984 17.8902C2.28951 17.8198 2.25 17.7245 2.25 17.625C2.25 17.5255 2.28951 17.4302 2.35984 17.3598C2.43016 17.2895 2.52554 17.25 2.625 17.25H12.375C12.4745 17.25 12.5698 17.2895 12.6402 17.3598C12.7105 17.4302 12.75 17.5255 12.75 17.625C12.75 17.7245 12.7105 17.8198 12.6402 17.8902C12.5698 17.9605 12.4745 18 12.375 18Z"/><path fill="#5D5766" d="M10.875 18C10.7755 18 10.6802 17.9605 10.6098 17.8902C10.5395 17.8198 10.5 17.7245 10.5 17.625V15H4.5V17.625C4.5 17.7245 4.46049 17.8198 4.39016 17.8902C4.31984 17.9605 4.22446 18 4.125 18C4.02554 18 3.93016 17.9605 3.85984 17.8902C3.78951 17.8198 3.75 17.7245 3.75 17.625V14.625C3.75 14.5255 3.78951 14.4302 3.85984 14.3598C3.93016 14.2895 4.02554 14.25 4.125 14.25H10.875C10.9745 14.25 11.0698 14.2895 11.1402 14.3598C11.2105 14.4302 11.25 14.5255 11.25 14.625V17.625C11.25 17.7245 11.2105 17.8198 11.1402 17.8902C11.0698 17.9605 10.9745 18 10.875 18Z"/></svg>