<svg xmlns="http://www.w3.org/2000/svg" width="20" height="19" fill="none" viewBox="0 0 20 19"><path fill="#5D5766" stroke="#5D5766" stroke-width=".3" d="M18.6952 4.72598C18.6028 4.67131 18.4976 4.64203 18.3902 4.6411C18.2829 4.64018 18.1772 4.66764 18.0838 4.72071C16.8107 5.43885 15.3746 5.81811 13.9129 5.82215H13.8514C12.9406 5.81575 12.0369 5.6614 11.1756 5.36512V1.61536C11.1757 1.50798 11.1477 1.40246 11.0943 1.30928C11.0409 1.21611 10.9641 1.13854 10.8714 1.08428C10.7788 1.03002 10.6735 1.00097 10.5662 1.00002C10.4588 0.999076 10.353 1.02626 10.2594 1.07887C8.98608 1.79738 7.54955 2.17688 6.08746 2.18102H6.02734C4.58633 2.16641 3.17244 1.78751 1.91723 1.07958C1.82363 1.02685 1.71786 0.99954 1.61044 1.00038C1.50301 1.00122 1.39768 1.03017 1.30492 1.08435C1.21216 1.13854 1.1352 1.21607 1.08171 1.30923C1.02821 1.40239 1.00004 1.50793 1 1.61536V8.3207C1 10.3496 1.95977 12.2856 3.5664 13.4992C4.29175 14.0485 5.17671 14.3458 6.08658 14.3458C6.99645 14.3458 7.8814 14.0485 8.60675 13.4992C8.72312 13.4113 8.83632 13.3189 8.94601 13.2236C9.25398 14.7846 10.1237 16.1786 11.3904 17.1414C12.1159 17.6905 13.0008 17.9876 13.9106 17.9876C14.8204 17.9876 15.7053 17.6905 16.4308 17.1414C18.0402 15.9271 19 13.9935 19 11.9625V5.25719C19.0006 5.14962 18.9727 5.04381 18.9192 4.9505C18.8656 4.8572 18.7884 4.77973 18.6952 4.72598ZM11.1461 8.93102C11.3245 8.81183 11.5344 8.74844 11.749 8.74891C11.9314 8.749 12.1108 8.79465 12.2711 8.88171C12.4313 8.96877 12.5673 9.09448 12.6666 9.24742C12.5833 9.37544 12.4741 9.4846 12.3461 9.56785C12.2181 9.6511 12.074 9.7066 11.9232 9.73078C11.7724 9.75496 11.6182 9.74728 11.4705 9.70823C11.3229 9.66918 11.1851 9.59963 11.0659 9.50406C11.1011 9.31469 11.1278 9.12367 11.1461 8.93102ZM8.29035 13.0794C7.65645 13.5596 6.88302 13.8195 6.08781 13.8195C5.2926 13.8195 4.51917 13.5596 3.88527 13.0794C2.40871 11.9636 1.52734 10.185 1.52734 8.3207V1.61536C1.52701 1.59997 1.53086 1.58479 1.53847 1.57141C1.54608 1.55804 1.55718 1.54698 1.57059 1.53942C1.58417 1.53155 1.59954 1.52732 1.61523 1.52712C1.63045 1.52724 1.64536 1.53137 1.65848 1.53907C2.99153 2.29084 4.49313 2.69309 6.02347 2.70836H6.08746C7.63972 2.70418 9.16493 2.30169 10.5171 1.53942C10.5302 1.53154 10.5451 1.52738 10.5604 1.52738C10.5756 1.52738 10.5906 1.53154 10.6036 1.53942C10.6171 1.54705 10.6282 1.55816 10.6359 1.57159C10.6436 1.58501 10.6475 1.60025 10.6472 1.61571V8.3207C10.6483 10.185 9.76691 11.9636 8.29035 13.0794ZM18.4726 11.9625C18.4726 13.8258 17.5909 15.6058 16.1144 16.7202C15.4805 17.2004 14.7072 17.4603 13.912 17.4603C13.1168 17.4603 12.3435 17.2004 11.7096 16.7202C10.4515 15.7632 9.62374 14.3466 9.40761 12.7806C10.1314 12.0088 10.6569 11.0727 10.939 10.0529C11.1313 10.1642 11.3444 10.2347 11.5652 10.2602C11.7859 10.2857 12.0095 10.2655 12.2221 10.2009C12.4346 10.1363 12.6317 10.0287 12.8009 9.88475C12.9702 9.74081 13.108 9.5636 13.2059 9.36414C13.2243 9.3276 13.2338 9.28727 13.2338 9.24637C13.2338 9.20547 13.2243 9.16514 13.2059 9.12859C13.0276 8.7666 12.7209 8.48393 12.3456 8.33563C11.9703 8.18733 11.5532 8.18401 11.1756 8.32633V5.91953C12.0392 6.19772 12.9402 6.34259 13.8475 6.34914C15.422 6.35704 16.9714 5.95413 18.3426 5.1802C18.3556 5.1724 18.3706 5.16828 18.3858 5.16828C18.401 5.16828 18.416 5.1724 18.4291 5.1802C18.4427 5.18783 18.4539 5.19904 18.4616 5.21261C18.4693 5.22618 18.4731 5.2416 18.4726 5.25719V11.9625ZM5.38187 5.72196C5.40008 5.68537 5.40955 5.64505 5.40955 5.60418C5.40955 5.56331 5.40008 5.523 5.38187 5.48641C5.24786 5.21434 5.04035 4.98523 4.78284 4.82502C4.52533 4.6648 4.2281 4.57989 3.92482 4.57989C3.62154 4.57989 3.32432 4.6648 3.06681 4.82502C2.80929 4.98523 2.60178 5.21434 2.46777 5.48641C2.44957 5.523 2.44009 5.56331 2.44009 5.60418C2.44009 5.64505 2.44957 5.68537 2.46777 5.72196C2.60178 5.99402 2.80929 6.22314 3.06681 6.38335C3.32432 6.54356 3.62154 6.62848 3.92482 6.62848C4.2281 6.62848 4.52533 6.54356 4.78284 6.38335C5.04035 6.22314 5.24786 5.99402 5.38187 5.72196ZM3.00742 5.60418C3.10692 5.45155 3.24292 5.32616 3.40312 5.23936C3.56331 5.15257 3.74263 5.10711 3.92482 5.10711C4.10702 5.10711 4.28634 5.15257 4.44653 5.23936C4.60672 5.32616 4.74273 5.45155 4.84222 5.60418C4.74273 5.75681 4.60672 5.88221 4.44653 5.969C4.28634 6.0558 4.10702 6.10126 3.92482 6.10126C3.74263 6.10126 3.56331 6.0558 3.40312 5.969C3.24292 5.88221 3.10692 5.75681 3.00742 5.60418ZM8.25097 4.57973C7.94773 4.57951 7.6505 4.66427 7.39299 4.82441C7.13549 4.98454 6.92801 5.21364 6.7941 5.48571C6.77573 5.52231 6.76616 5.5627 6.76616 5.60365C6.76616 5.64461 6.77573 5.685 6.7941 5.7216C6.92805 5.99369 7.13552 6.22282 7.39301 6.38305C7.65049 6.54329 7.9477 6.62821 8.25097 6.62821C8.55424 6.62821 8.85145 6.54329 9.10894 6.38305C9.36642 6.22282 9.57389 5.99369 9.70785 5.7216C9.72605 5.68501 9.73553 5.6447 9.73553 5.60383C9.73553 5.56296 9.72605 5.52265 9.70785 5.48606C9.57398 5.21392 9.36653 4.98476 9.10902 4.82456C8.8515 4.66436 8.55425 4.57954 8.25097 4.57973ZM8.25097 6.10129C8.06874 6.10135 7.88937 6.05591 7.72914 5.96911C7.56891 5.8823 7.43288 5.75687 7.33339 5.60418C7.43289 5.45155 7.5689 5.32616 7.72909 5.23936C7.88928 5.15257 8.0686 5.10711 8.2508 5.10711C8.43299 5.10711 8.61231 5.15257 8.7725 5.23936C8.9327 5.32616 9.0687 5.45155 9.1682 5.60418C9.06881 5.75688 8.93286 5.88234 8.77268 5.96915C8.6125 6.05596 8.43317 6.10139 8.25097 6.10129ZM16.0753 8.22191C15.772 8.22173 15.4746 8.30659 15.2171 8.46685C14.9595 8.62711 14.752 8.85637 14.6181 9.12859C14.5999 9.16518 14.5904 9.2055 14.5904 9.24637C14.5904 9.28724 14.5999 9.32755 14.6181 9.36414C14.7521 9.63621 14.9596 9.86532 15.2171 10.0255C15.4747 10.1857 15.7719 10.2707 16.0752 10.2707C16.3784 10.2707 16.6757 10.1857 16.9332 10.0255C17.1907 9.86532 17.3982 9.63621 17.5322 9.36414C17.5504 9.32755 17.5599 9.28724 17.5599 9.24637C17.5599 9.2055 17.5504 9.16518 17.5322 9.12859C17.3984 8.85637 17.191 8.62711 16.9335 8.46684C16.676 8.30657 16.3787 8.22172 16.0753 8.22191ZM16.0753 9.74347C15.8932 9.74371 15.7139 9.69846 15.5536 9.61184C15.3934 9.52521 15.2573 9.39995 15.1578 9.24742C15.2573 9.09479 15.3933 8.9694 15.5535 8.8826C15.7137 8.7958 15.893 8.75035 16.0752 8.75035C16.2574 8.75035 16.4367 8.7958 16.5969 8.8826C16.7571 8.9694 16.8931 9.09479 16.9926 9.24742C16.8931 9.39993 16.7571 9.52517 16.5969 9.6118C16.4367 9.69842 16.2574 9.74368 16.0753 9.74347ZM13.9118 12.0638H13.8805C13.2357 12.073 12.6178 12.3239 12.1491 12.7669C11.6742 13.2118 11.3796 13.8158 11.3215 14.4639C11.3173 14.5114 11.326 14.5592 11.3467 14.6021C11.3675 14.6451 11.3995 14.6816 11.4394 14.7078C11.4792 14.734 11.5254 14.7489 11.5731 14.7509C11.6208 14.7529 11.6681 14.7419 11.71 14.7191C12.3834 14.3547 13.1366 14.1627 13.9023 14.1605H13.9108C14.6799 14.1616 15.4367 14.3541 16.113 14.7205C16.1549 14.744 16.2025 14.7555 16.2506 14.7538C16.2986 14.7521 16.3453 14.7373 16.3856 14.7111C16.4258 14.6848 16.4581 14.648 16.479 14.6047C16.4998 14.5614 16.5084 14.5132 16.5039 14.4653C16.3808 13.1146 15.246 12.0641 13.9118 12.0641V12.0638ZM13.9118 13.6328H13.9023C13.2325 13.6345 12.5695 13.7669 11.9505 14.0227C12.2317 13.2 13.0051 12.602 13.8865 12.5915C14.7939 12.5802 15.5891 13.18 15.8742 14.0234C15.2521 13.7661 14.5854 13.6335 13.9122 13.6332L13.9118 13.6328ZM8.56035 8.46484C8.52047 8.43867 8.47425 8.42377 8.42659 8.42173C8.37894 8.41969 8.33161 8.43057 8.28964 8.45324C7.61351 8.82003 6.85667 9.01262 6.08746 9.01363H6.07902C5.31267 9.01124 4.55889 8.81869 3.88527 8.45324C3.84337 8.43103 3.79625 8.42052 3.74888 8.42281C3.70151 8.4251 3.65563 8.44011 3.61606 8.46626C3.57649 8.49241 3.5447 8.52874 3.52402 8.57142C3.50334 8.6141 3.49455 8.66157 3.49855 8.70883C3.55586 9.35735 3.84996 9.96207 4.32472 10.4076C4.79342 10.8506 5.41132 11.1015 6.05617 11.1107H6.08746C7.42164 11.1107 8.55683 10.0616 8.67847 8.70953C8.68275 8.66201 8.67406 8.61422 8.65332 8.57126C8.63258 8.52829 8.60057 8.49175 8.5607 8.46555L8.56035 8.46484ZM6.0625 10.5834C5.18148 10.5725 4.40769 9.97445 4.12644 9.1518C4.74554 9.40786 5.40871 9.54042 6.07867 9.54203H6.08781C6.76122 9.5416 7.42798 9.4089 8.05023 9.15145C7.76546 9.99449 6.96918 10.5939 6.0625 10.5834Z"/></svg>