<svg width="18" height="12" viewBox="0 0 18 12" fill="none" xmlns="http://www.w3.org/2000/svg">
<path d="M14.5125 4.53C14.0025 1.9425 11.73 0 9 0C6.8325 0 4.9575 1.23 4.02 3.03C1.7625 3.27 0 5.175 0 7.5C0 9.9825 2.0175 12 4.5 12H14.25C16.32 12 18 10.32 18 8.25C18 6.27 16.4625 4.665 14.5125 4.53ZM14.25 10.5H4.6275C3.06 10.5 1.665 9.3525 1.515 7.7925C1.3425 6.0075 2.745 4.5 4.5 4.5C5.94 4.5 7.1475 5.52 7.4325 6.8775C7.5075 7.2375 7.8075 7.5 8.1675 7.5C8.625 7.5 9 7.0875 8.91 6.6375C8.5875 4.9575 7.3275 3.615 5.6925 3.165C6.5175 2.07 7.86 1.3875 9.36 1.515C11.52 1.7025 13.1175 3.63 13.1175 5.7975V6H14.145C15.2325 6 16.2375 6.7275 16.4475 7.8C16.74 9.2325 15.6375 10.5 14.25 10.5Z" fill="#5D5766"/>
</svg>
