<svg xmlns="http://www.w3.org/2000/svg" width="18" height="18" fill="none" viewBox="0 0 18 18"><path fill="#5D5766" d="M15.2613 9.00416C15.4557 8.82222 15.6426 8.63903 15.8221 8.4546C16.1301 8.58955 16.4747 8.61671 16.8001 8.5317C17.1255 8.44669 17.4127 8.25447 17.6154 7.9861C17.8181 7.71772 17.9244 7.38885 17.9171 7.05261C17.9099 6.71637 17.7895 6.39239 17.5754 6.13301C18.8091 3.69552 17.31 1.72534 11.9677 3.51607C10.4947 -1.15328 7.48153 -1.17945 5.98614 3.48243C-0.156182 1.45243 -2.02168 4.46565 2.80095 9.0079C2.60655 9.19108 2.42711 9.38174 2.24766 9.55371C0.714884 8.66396 -0.784246 10.7126 0.464406 11.9164C-0.115058 13.0866 0.0456962 13.8343 0.296174 14.238C1.22705 15.7932 4.29634 15.0941 6.01978 14.5259C7.51517 19.1018 10.4686 19.0868 11.9453 14.4922C18.2222 16.6082 20.1101 13.5688 15.2613 9.00416ZM16.4539 7.85271C16.306 7.85271 16.1614 7.80886 16.0385 7.7267C15.9155 7.64454 15.8197 7.52777 15.7631 7.39114C15.7065 7.25452 15.6917 7.10418 15.7205 6.95914C15.7494 6.8141 15.8206 6.68088 15.9252 6.57631C16.0297 6.47174 16.163 6.40053 16.308 6.37168C16.453 6.34283 16.6034 6.35764 16.74 6.41423C16.8766 6.47082 16.9934 6.56666 17.0756 6.68961C17.1577 6.81257 17.2016 6.95713 17.2016 7.10501C17.2016 7.30331 17.1228 7.49349 16.9826 7.63371C16.8424 7.77393 16.6522 7.85271 16.4539 7.85271ZM16.9586 5.70308C16.6595 5.59851 16.335 5.59161 16.0318 5.68338C15.7286 5.77514 15.4624 5.96083 15.2715 6.21366C15.0806 6.46649 14.975 6.77341 14.9698 7.09016C14.9646 7.40691 15.0601 7.71713 15.2426 7.97608C15.0744 8.15178 14.8949 8.32375 14.708 8.49946C11.4705 5.67691 13.2126 8.30506 12.1696 4.24134C14.9809 3.28803 18.2483 3.03007 16.9586 5.70308ZM9.03299 12.4323C7.99912 11.9022 7.00016 11.3066 6.04221 10.6491C5.95436 9.55797 5.95436 8.46156 6.04221 7.37044C7.00065 6.71484 7.99956 6.12048 9.03299 5.59093C10.0216 6.10133 10.9779 6.6719 11.8967 7.29941C11.9902 8.44023 11.9902 9.58678 11.8967 10.7276C10.9769 11.3513 10.0207 11.9193 9.03299 12.4286V12.4323ZM11.7883 11.6846C11.7081 12.299 11.5921 12.9082 11.4406 13.509C10.9247 13.3109 10.3938 13.0828 9.85546 12.8286C10.6293 12.4174 11.1378 12.1146 11.7883 11.6921V11.6846ZM8.20679 12.8286C7.6348 13.0978 7.08525 13.3408 6.52074 13.5464C6.35705 12.9078 6.23221 12.2599 6.14689 11.6061C6.90206 12.0996 7.45162 12.4286 8.20679 12.8361V12.8286ZM5.26835 10.0958C4.78982 9.74064 4.33747 9.37801 3.91502 9.01537C4.33747 8.64153 4.78608 8.29011 5.26461 7.93869C5.23844 8.6677 5.23844 9.3481 5.26835 10.0958ZM6.14315 6.41713C6.22454 5.75786 6.34943 5.1047 6.517 4.46191C7.07029 4.67126 7.63854 4.91426 8.21427 5.18717C7.3918 5.60962 6.82355 5.98347 6.14315 6.40965V6.41713ZM9.88163 5.18717C10.425 4.93794 10.9558 4.71114 11.4742 4.50677C11.6247 5.10885 11.7396 5.71928 11.8182 6.33489C11.0929 5.87131 10.5209 5.53859 9.86294 5.1797L9.88163 5.18717ZM12.6855 7.85271C13.2051 8.22655 13.6949 8.61909 14.1435 9.01163C13.6911 9.40417 13.2014 9.79671 12.6817 10.178C12.726 9.40359 12.7272 8.62729 12.6855 7.85271ZM11.2536 3.77403C10.5359 4.04694 9.78817 4.37218 9.03299 4.74977C8.27666 4.37435 7.5018 4.03745 6.7114 3.74038C7.98996 -0.30465 10.0274 -0.155111 11.2536 3.77403ZM5.79547 4.20021C4.71132 8.42095 6.46466 5.78907 3.3692 8.5032C-0.948739 4.48808 0.438236 2.42444 5.79547 4.20021ZM1.49996 10.0958C1.64784 10.0958 1.7924 10.1396 1.91536 10.2218C2.03832 10.304 2.13415 10.4207 2.19074 10.5574C2.24734 10.694 2.26214 10.8443 2.23329 10.9894C2.20444 11.1344 2.13323 11.2676 2.02866 11.3722C1.9241 11.4768 1.79087 11.548 1.64583 11.5768C1.50079 11.6057 1.35046 11.5909 1.21383 11.5343C1.07721 11.4777 0.960436 11.3818 0.878278 11.2589C0.79612 11.1359 0.752268 10.9914 0.752268 10.8435C0.752268 10.6452 0.831043 10.455 0.971263 10.3148C1.11148 10.1746 1.30166 10.0958 1.49996 10.0958ZM1.12612 12.2828C1.40905 12.3507 1.70564 12.3346 1.97954 12.2364C2.25345 12.1382 2.49277 11.9623 2.66817 11.7302C2.84357 11.498 2.94744 11.2197 2.96704 10.9294C2.98664 10.6391 2.92112 10.3494 2.77852 10.0958C2.96171 9.90513 3.15237 9.72194 3.35425 9.52754C6.47961 12.2529 4.70758 9.60979 5.81043 13.8193C2.99535 14.739 -0.186089 14.9558 1.12612 12.2828ZM6.73383 14.2754C7.51819 13.9785 8.28683 13.6416 9.03673 13.266C9.78443 13.6399 10.5321 13.9651 11.2387 14.238C10.005 18.1073 7.9937 18.2083 6.73383 14.2754ZM12.1546 13.7707C13.2126 9.69952 11.4593 12.3389 14.708 9.50885C18.9699 13.4978 17.7474 15.6699 12.1509 13.7707H12.1546Z"/></svg>