<svg width="50" height="50" viewBox="0 0 50 50" fill="none" xmlns="http://www.w3.org/2000/svg">
<circle cx="25" cy="25" r="25" fill="#7E34EE"/>
<path d="M21 16H18C16.8954 16 16 16.8954 16 18V21C16 22.1046 16.8954 23 18 23H21C22.1046 23 23 22.1046 23 21V18C23 16.8954 22.1046 16 21 16Z" stroke="#EBEDEF" stroke-width="2" stroke-linecap="round" stroke-linejoin="round"/>
<path d="M32 16H29C27.8954 16 27 16.8954 27 18V21C27 22.1046 27.8954 23 29 23H32C33.1046 23 34 22.1046 34 21V18C34 16.8954 33.1046 16 32 16Z" stroke="#EBEDEF" stroke-width="2" stroke-linecap="round" stroke-linejoin="round"/>
<path d="M32 27H29C27.8954 27 27 27.8954 27 29V32C27 33.1046 27.8954 34 29 34H32C33.1046 34 34 33.1046 34 32V29C34 27.8954 33.1046 27 32 27Z" stroke="#EBEDEF" stroke-width="2" stroke-linecap="round" stroke-linejoin="round"/>
<path d="M21 27H18C16.8954 27 16 27.8954 16 29V32C16 33.1046 16.8954 34 18 34H21C22.1046 34 23 33.1046 23 32V29C23 27.8954 22.1046 27 21 27Z" stroke="#EBEDEF" stroke-width="2" stroke-linecap="round" stroke-linejoin="round"/>
</svg>
