<svg xmlns="http://www.w3.org/2000/svg" width="20" height="20" fill="none" viewBox="0 0 20 20"><path stroke="#7E34EE" d="M7 16V3L19 1V14" strokeLinecap="round" strokeLinejoin="round" strokeWidth="2"/><path stroke="#7E34EE" d="M4 19C5.65685 19 7 17.6569 7 16C7 14.3431 5.65685 13 4 13C2.34315 13 1 14.3431 1 16C1 17.6569 2.34315 19 4 19Z" strokeLinecap="round" strokeLinejoin="round" strokeWidth="2"/><path stroke="#7E34EE" d="M16 17C17.6569 17 19 15.6569 19 14C19 12.3431 17.6569 11 16 11C14.3431 11 13 12.3431 13 14C13 15.6569 14.3431 17 16 17Z" strokeLinecap="round" strokeLinejoin="round" strokeWidth="2"/></svg>