<svg xmlns="http://www.w3.org/2000/svg" width="20" height="20" fill="none" viewBox="0 0 20 20"><path stroke="#5D5766" stroke-linejoin="round" d="M13.1469 6.25C13.1469 4.35 10.6281 2.8125 7.52185 2.8125C4.4156 2.8125 1.89685 4.35 1.89685 6.25C1.89685 7.95 3.91873 9.35937 6.58435 9.63437V11.875L8.8781 9.58438C11.325 9.2125 13.1469 7.8625 13.1469 6.25Z"/><path stroke="#5D5766" stroke-linejoin="round" d="M7.68127 8.03744L6.35939 6.71557C5.29064 5.64682 6.61252 4.32494 7.68127 5.39369C8.74689 4.32807 10.0688 5.64994 9.00314 6.71557L7.68127 8.03744Z"/><path stroke="#5D5766" stroke-linejoin="round" d="M13.5719 13.7499L12.5219 12.6999C11.675 11.8531 12.725 10.8031 13.5719 11.6499C14.4188 10.8031 15.4688 11.8531 14.6219 12.6999L13.5719 13.7499Z"/><path stroke="#5D5766" stroke-linejoin="round" d="M8.77185 12.4781C8.77185 11.1 10.8625 9.97815 13.4375 9.97815C16.0125 9.97815 18.1031 11.0969 18.1031 12.4781C18.1031 13.7281 16.425 14.7344 14.225 14.9375L14.0406 17.1875L12.3125 14.8969C10.2812 14.6281 8.77185 13.65 8.77185 12.4781Z"/></svg>